<?xml version="1.0" standalone="no"?>
<!DOCTYPE svg PUBLIC "-//W3C//DTD SVG 20010904//EN"
 "http://www.w3.org/TR/2001/REC-SVG-20010904/DTD/svg10.dtd">
<svg version="1.0" xmlns="http://www.w3.org/2000/svg"
 width="260.000000pt" height="260.000000pt" viewBox="0 0 260.000000 260.000000"
 preserveAspectRatio="xMidYMid meet">
<metadata>
Created by potrace 1.11, written by Peter Selinger 2001-2013
</metadata>
<g transform="translate(0.000000,260.000000) scale(0.100000,-0.100000)"
fill="#000000" stroke="none">
<path d="M190 2590 c0 -5 -11 -10 -25 -10 -14 0 -25 -4 -25 -10 0 -5 -7 -10
-15 -10 -8 0 -15 -4 -15 -10 0 -5 -5 -10 -10 -10 -17 0 -60 -47 -60 -65 0 -8
-4 -15 -10 -15 -5 0 -10 -11 -10 -25 0 -14 -4 -25 -10 -25 -7 0 -10 -377 -10
-1110 0 -733 3 -1110 10 -1110 6 0 10 -11 10 -25 0 -14 5 -25 10 -25 6 0 10
-7 10 -15 0 -20 65 -85 85 -85 8 0 15 -4 15 -10 0 -5 11 -10 25 -10 14 0 25
-4 25 -10 0 -7 377 -10 1110 -10 733 0 1110 3 1110 10 0 6 11 10 25 10 14 0
25 5 25 10 0 6 7 10 15 10 20 0 85 65 85 85 0 8 5 15 10 15 6 0 10 14 10 30 0
17 5 30 10 30 7 0 10 375 10 1105 0 730 -3 1105 -10 1105 -5 0 -10 11 -10 25
0 14 -4 25 -10 25 -5 0 -10 6 -10 13 0 16 -44 67 -59 67 -6 0 -11 5 -11 10 0
6 -7 10 -15 10 -8 0 -15 5 -15 10 0 6 -11 10 -25 10 -14 0 -25 5 -25 10 0 7
-377 10 -1110 10 -733 0 -1110 -3 -1110 -10z m1303 -615 c26 -4 47 -11 47 -16
0 -5 9 -9 20 -9 11 0 20 -4 20 -10 0 -5 7 -10 16 -10 16 0 64 -46 90 -86 43
-65 58 -249 29 -359 -14 -55 -62 -144 -78 -145 -5 0 -15 -6 -23 -14 -18 -18
-8 -46 17 -46 10 0 19 -4 19 -10 0 -5 7 -10 15 -10 8 0 15 -4 15 -10 0 -5 6
-10 13 -10 7 0 24 -18 37 -40 14 -22 28 -40 33 -40 4 0 7 -8 7 -18 0 -10 5
-23 12 -30 29 -29 7 -342 -24 -342 -4 0 -8 -7 -8 -15 0 -17 -84 -105 -100
-105 -5 0 -10 -4 -10 -10 0 -5 -9 -10 -20 -10 -11 0 -20 -4 -20 -10 0 -5 -13
-10 -30 -10 -16 0 -30 -4 -30 -10 0 -6 -128 -10 -365 -10 l-365 0 0 700 0 701
318 -5 c174 -2 338 -7 365 -11z"/>
<path d="M1047 1814 c-4 -4 -7 -103 -7 -220 l0 -214 26 -6 c38 -10 345 2 353
13 3 5 13 12 21 15 9 3 21 18 29 34 7 16 17 37 22 46 5 10 9 63 9 118 0 55 -4
108 -9 118 -5 9 -14 29 -21 43 -21 46 -51 53 -240 57 -96 2 -178 0 -183 -4z"/>
<path d="M1047 1214 c-4 -4 -7 -110 -7 -236 l0 -228 192 0 c128 0 204 4 227
13 40 13 81 49 81 70 0 7 6 19 12 25 14 14 18 209 6 253 -11 40 -59 85 -98 94
-46 10 -404 18 -413 9z"/>
</g>
</svg>
